<?xml version="1.0" encoding="UTF-8"?>
<svg version="1.1" xmlns="http://www.w3.org/2000/svg" width="512" height="512">
<path d="M0 0 C2.28906015 4.11174532 1.95394063 8.01581036 1.85253906 12.64160156 C1.84687927 13.61256775 1.84121948 14.58353394 1.83538818 15.58392334 C1.81301718 18.68177826 1.76281879 21.7784719 1.71191406 24.87597656 C1.69185003 26.97752235 1.67359909 29.07908628 1.65722656 31.18066406 C1.61314987 36.32954826 1.54411664 41.4775656 1.46191406 46.62597656 C3.00782227 46.59987305 3.00782227 46.59987305 4.58496094 46.57324219 C5.95019122 46.55916765 7.31542593 46.54551817 8.68066406 46.53222656 C9.35838867 46.5196582 10.03611328 46.50708984 10.734375 46.49414062 C17.5754055 46.4442061 21.53061046 47.82897572 26.42285156 52.49707031 C32.81207997 59.39482915 33.9422999 64.82960809 33.76660156 74.18066406 C33.07131203 82.04278411 29.41437388 86.1755636 23.55957031 91.18066406 C18.70371835 94.52640936 14.43100645 94.89482479 8.64941406 94.75097656 C7.95654297 94.74195312 7.26367188 94.73292969 6.54980469 94.72363281 C4.85369011 94.70023813 3.15775535 94.66437297 1.46191406 94.62597656 C1.46191406 97.26597656 1.46191406 99.90597656 1.46191406 102.62597656 C2.44417969 102.59455566 2.44417969 102.59455566 3.44628906 102.5625 C6.45133735 102.47867273 9.4561387 102.42710761 12.46191406 102.37597656 C13.491875 102.34246094 14.52183594 102.30894531 15.58300781 102.27441406 C23.42328658 102.1745379 28.75384134 103.37656788 34.70410156 108.59082031 C35.51234375 109.56728516 35.51234375 109.56728516 36.33691406 110.56347656 C36.89121094 111.211875 37.44550781 111.86027344 38.01660156 112.52832031 C40.64661529 116.34539429 41.71119521 119.82064677 41.71918297 124.43555927 C41.72563186 125.38109773 41.73208075 126.32663619 41.73872507 127.30082732 C41.73407926 128.84662964 41.73407926 128.84662964 41.7293396 130.42366028 C41.73387071 131.52484701 41.73840183 132.62603375 41.74307024 133.76058978 C41.75575026 137.45770449 41.75409153 141.15467257 41.75244141 144.85180664 C41.75842441 147.49963429 41.76517266 150.14745039 41.77279663 152.79527283 C41.78940349 159.24561869 41.79490604 165.69592799 41.79602139 172.14629344 C41.79697204 177.39019973 41.80108317 182.63409397 41.80742264 187.87799644 C41.8250344 202.74906919 41.83426164 217.62011307 41.83276169 232.49119631 C41.83268178 233.29275631 41.83260187 234.09431632 41.83251953 234.92016602 C41.83243777 235.72270601 41.83235601 236.52524601 41.83227177 237.3521054 C41.83145895 250.35708402 41.85059582 263.36194679 41.87879626 276.3668919 C41.9075312 289.72384366 41.92133622 303.08073893 41.91960871 316.43772238 C41.91894501 323.9352191 41.92442866 331.43259439 41.94596481 338.93006325 C41.96418469 345.31388779 41.96851744 351.69753586 41.95494597 358.08137516 C41.94842015 361.3371468 41.95046249 364.59251002 41.96565247 367.84826279 C41.98106969 371.38159184 41.97181878 374.91403223 41.95639038 378.44734192 C41.96667751 379.47118463 41.97696463 380.49502734 41.98756349 381.54989558 C41.91659614 388.90590378 40.39276988 394.28142141 35.49707031 399.86816406 C34.84609375 400.40699219 34.19511719 400.94582031 33.52441406 401.50097656 C32.87601562 402.05527344 32.22761719 402.60957031 31.55957031 403.18066406 C26.74120861 406.50057808 22.33712217 406.91228129 16.60954285 406.8664856 C15.82531222 406.86819445 15.0410816 406.8699033 14.23308641 406.87166393 C11.60899223 406.87495447 8.98515455 406.86396234 6.36108398 406.85302734 C4.47859707 406.85246314 2.59610971 406.85277998 0.71362305 406.85391235 C-4.39546059 406.85448649 -9.50445044 406.84272223 -14.61351228 406.82876444 C-19.95333014 406.81626731 -25.29315012 406.81508738 -30.63298035 406.81271362 C-40.74409325 406.80649587 -50.85516293 406.79008103 -60.9662568 406.77001464 C-72.47763499 406.74766486 -83.98901524 406.73666453 -95.50040972 406.72662377 C-119.1796599 406.70571508 -142.85886868 406.67013076 -166.53808594 406.62597656 C-166.53808594 414.54597656 -166.53808594 422.46597656 -166.53808594 430.62597656 C-160.97707031 430.55636719 -160.97707031 430.55636719 -155.30371094 430.48535156 C-151.71615976 430.45416356 -148.12862365 430.42987133 -144.54101562 430.40625 C-142.04615528 430.38612492 -139.55134216 430.35882204 -137.05664062 430.32421875 C-133.47221226 430.27574199 -129.88840709 430.25301636 -126.30371094 430.23535156 C-125.18691956 430.21470642 -124.07012817 430.19406128 -122.91949463 430.17279053 C-121.87871765 430.1724884 -120.83794067 430.17218628 -119.765625 430.171875 C-118.85073303 430.16299255 -117.93584106 430.15411011 -116.9932251 430.1449585 C-113.72049636 430.78616111 -112.54603056 432.00598426 -110.53808594 434.62597656 C-110.03015137 436.59863281 -110.03015137 436.59863281 -110.02050781 438.68847656 C-110.00159485 439.86990234 -110.00159485 439.86990234 -109.9822998 441.07519531 C-109.99444519 442.33783203 -109.99444519 442.33783203 -110.00683594 443.62597656 C-110.00300903 444.49867188 -109.99918213 445.37136719 -109.99523926 446.27050781 C-109.99252104 448.11296748 -109.99987599 449.9554658 -110.01660156 451.79785156 C-110.03801346 454.6164359 -110.01679793 457.43247141 -109.99121094 460.25097656 C-109.99385423 462.04264885 -109.99897924 463.83431955 -110.00683594 465.62597656 C-109.99873901 466.46773438 -109.99064209 467.30949219 -109.9822998 468.17675781 C-110.00121277 469.35818359 -110.00121277 469.35818359 -110.02050781 470.56347656 C-110.02369019 471.253125 -110.02687256 471.94277344 -110.03015137 472.65332031 C-110.79176167 475.61117237 -112.16265559 476.73331807 -114.53808594 478.62597656 C-117.64282227 479.12934113 -117.64282227 479.12934113 -121.37011719 479.13391113 C-122.40006554 479.14327108 -122.40006554 479.14327108 -123.45082092 479.15282011 C-125.75109214 479.16877224 -128.05030691 479.15613824 -130.35058594 479.14355469 C-131.99984353 479.14897486 -133.64909628 479.15609693 -135.29833984 479.16479492 C-139.77768809 479.18304382 -144.25666819 479.17595437 -148.73602295 479.16327858 C-153.4213562 479.15315899 -158.10665771 479.16254136 -162.79199219 479.16882324 C-170.66053941 479.17610269 -178.5289365 479.16650416 -186.39746094 479.14746094 C-195.49754365 479.12569161 -204.5972679 479.13274277 -213.69734192 479.15476656 C-221.50721813 479.1729121 -229.31698636 479.17548303 -237.12687683 479.16501188 C-241.79281491 479.15877229 -246.45858444 479.15795408 -251.12451172 479.17115784 C-255.51097411 479.18270345 -259.89697388 479.17471443 -264.28338623 479.15158081 C-265.89425894 479.14628679 -267.50517052 479.14781936 -269.11602783 479.15663147 C-271.31323094 479.16754396 -273.50894668 479.15387797 -275.70605469 479.13391113 C-277.55106567 479.13164898 -277.55106567 479.13164898 -279.43334961 479.12934113 C-283.11890748 478.53180915 -284.29424013 477.55049589 -286.53808594 474.62597656 C-287.04602051 472.65332031 -287.04602051 472.65332031 -287.05566406 470.56347656 C-287.07457703 469.38205078 -287.07457703 469.38205078 -287.09387207 468.17675781 C-287.08577515 467.335 -287.07767822 466.49324219 -287.06933594 465.62597656 C-287.07316284 464.75328125 -287.07698975 463.88058594 -287.08093262 462.98144531 C-287.08365084 461.13898564 -287.07629588 459.29648732 -287.05957031 457.45410156 C-287.03815841 454.63551722 -287.05937395 451.81948172 -287.08496094 449.00097656 C-287.08231764 447.20930428 -287.07719263 445.41763357 -287.06933594 443.62597656 C-287.07743286 442.78421875 -287.08552979 441.94246094 -287.09387207 441.07519531 C-287.07495911 439.89376953 -287.07495911 439.89376953 -287.05566406 438.68847656 C-287.05248169 437.99882812 -287.04929932 437.30917969 -287.04602051 436.59863281 C-286.29048559 433.66437561 -284.90900888 432.45965597 -282.53808594 430.62597656 C-280.08294678 430.1449585 -280.08294678 430.1449585 -277.31054688 430.171875 C-275.74938141 430.17232819 -275.74938141 430.17232819 -274.15667725 430.17279053 C-272.48149017 430.20375824 -272.48149017 430.20375824 -270.77246094 430.23535156 C-269.62392639 430.24101135 -268.47539185 430.24667114 -267.29205322 430.25250244 C-263.62364019 430.27489325 -259.95620377 430.32509715 -256.28808594 430.37597656 C-253.80112088 430.39603795 -251.31414051 430.41428935 -248.82714844 430.43066406 C-242.73011532 430.47136522 -236.63519375 430.54965672 -230.53808594 430.62597656 C-230.53808594 422.70597656 -230.53808594 414.78597656 -230.53808594 406.62597656 C-234.10073242 406.63930023 -234.10073242 406.63930023 -237.73535156 406.65289307 C-260.10137278 406.73462516 -282.46737431 406.79415665 -304.83351135 406.83322525 C-316.3325897 406.85384566 -327.83155842 406.88195644 -339.33056641 406.92773438 C-349.35373953 406.96761792 -359.37683327 406.99341316 -369.40008354 407.00233054 C-374.70676376 407.00754268 -380.01321684 407.01978251 -385.31982422 407.04889679 C-390.31681684 407.07608972 -395.3134892 407.08441365 -400.31054878 407.07840729 C-402.14229639 407.07950578 -403.97405493 407.0874365 -405.80573845 407.10279846 C-408.31253255 407.12278741 -410.81812761 407.11788385 -413.32495117 407.10699463 C-414.04481956 407.11864599 -414.76468796 407.13029736 -415.50637054 407.1423018 C-421.92885751 407.0672201 -427.00182596 404.84851797 -431.78027344 400.66113281 C-432.31910156 400.01015625 -432.85792969 399.35917969 -433.41308594 398.68847656 C-433.96738281 398.04007812 -434.52167969 397.39167969 -435.09277344 396.72363281 C-437.72278716 392.90655884 -438.78736709 389.43130635 -438.79535484 384.81639385 C-438.80502818 383.39808617 -438.80502818 383.39808617 -438.81489694 381.9511258 C-438.81179974 380.92059093 -438.80870253 379.89005605 -438.80551147 378.82829285 C-438.81004259 377.72710611 -438.8145737 376.62591938 -438.81924212 375.49136335 C-438.83192214 371.79424864 -438.8302634 368.09728056 -438.82861328 364.40014648 C-438.83459628 361.75231883 -438.84134453 359.10450274 -438.84896851 356.4566803 C-438.86557536 350.00633444 -438.87107791 343.55602513 -438.87219326 337.10565969 C-438.87314391 331.8617534 -438.87725505 326.61785916 -438.88359451 321.37395668 C-438.90120627 306.50288394 -438.91043352 291.63184006 -438.90893357 276.76075681 C-438.90885365 275.95919681 -438.90877374 275.15763681 -438.90869141 274.33178711 C-438.90856876 273.12797711 -438.90856876 273.12797711 -438.90844364 271.89984772 C-438.90763082 258.89486911 -438.9267677 245.89000634 -438.95496814 232.88506123 C-438.98370307 219.52810947 -438.99750809 206.17121419 -438.99578059 192.81423074 C-438.99511688 185.31673402 -439.00060053 177.81935874 -439.02213669 170.32188988 C-439.04035657 163.93806533 -439.04468932 157.55441726 -439.03111784 151.17057797 C-439.02459202 147.91480633 -439.02663437 144.65944311 -439.04182434 141.40369034 C-439.05724157 137.87036128 -439.04799066 134.33792089 -439.03256226 130.80461121 C-439.04284938 129.7807685 -439.05313651 128.75692579 -439.06373537 127.70205754 C-438.99276801 120.34604934 -437.46894176 114.97053171 -432.57324219 109.38378906 C-431.92226563 108.84496094 -431.27128906 108.30613281 -430.60058594 107.75097656 C-429.9521875 107.19667969 -429.30378906 106.64238281 -428.63574219 106.07128906 C-424.53278096 103.24429529 -420.96715332 102.37537246 -416.01855469 102.43066406 C-414.99697266 102.43710938 -413.97539062 102.44355469 -412.92285156 102.45019531 C-411.34020508 102.47533203 -411.34020508 102.47533203 -409.72558594 102.50097656 C-408.65115234 102.51 -407.57671875 102.51902344 -406.46972656 102.52832031 C-403.8256174 102.55182351 -401.18196721 102.58468081 -398.53808594 102.62597656 C-398.54696838 101.68272522 -398.55585083 100.73947388 -398.56500244 99.76763916 C-398.64607285 90.88040195 -398.70604381 81.99323972 -398.74533463 73.10571671 C-398.76621359 68.53646693 -398.79453665 63.96751554 -398.83984375 59.3984375 C-398.88329082 54.98936783 -398.90722072 50.58058526 -398.91759491 46.17131805 C-398.92498836 44.4887617 -398.9394261 42.80622113 -398.96100616 41.12378693 C-398.99002597 38.76772555 -398.99404268 36.41285183 -398.9921875 34.05664062 C-399.01375916 33.01222809 -399.01375916 33.01222809 -399.0357666 31.94671631 C-399.00925047 28.83646199 -398.79883669 26.98035071 -396.93502426 24.44733047 C-393.72341449 22.00693476 -391.71967895 22.12296307 -387.70605469 22.11804199 C-387.01942245 22.11180203 -386.33279022 22.10556207 -385.62535095 22.09913301 C-383.32507973 22.08318088 -381.02586497 22.09581489 -378.72558594 22.10839844 C-377.07632834 22.10297826 -375.42707559 22.09585619 -373.77783203 22.0871582 C-369.29848378 22.06890931 -364.81950368 22.07599876 -360.34014893 22.08867455 C-355.65481567 22.09879413 -350.96951416 22.08941177 -346.28417969 22.08312988 C-338.41563247 22.07585044 -330.54723537 22.08544896 -322.67871094 22.10449219 C-313.57862823 22.12626152 -304.47890398 22.11921036 -295.37882996 22.09718657 C-287.56895375 22.07904102 -279.75918552 22.0764701 -271.94929504 22.08694124 C-267.28335697 22.09318084 -262.61758744 22.09399904 -257.95166016 22.08079529 C-253.56519777 22.06924967 -249.179198 22.07723869 -244.79278564 22.10037231 C-243.18191293 22.10566634 -241.57100135 22.10413376 -239.96014404 22.09532166 C-237.76294093 22.08440916 -235.5672252 22.09807516 -233.37011719 22.11804199 C-231.5251062 22.12030415 -231.5251062 22.12030415 -229.64282227 22.122612 C-225.93461359 22.7238163 -224.74305264 23.62930953 -222.53808594 26.62597656 C-222.16353613 29.24715985 -222.02997398 31.44167519 -222.08398438 34.05664062 C-222.08340027 34.79849609 -222.08281616 35.54035156 -222.08221436 36.3046875 C-222.08499569 38.75080558 -222.11608808 41.19569703 -222.14746094 43.64160156 C-222.1549232 45.33981663 -222.1606162 47.03804032 -222.16461182 48.73626709 C-222.17986943 53.20153666 -222.21915205 57.66628409 -222.26342773 62.13134766 C-222.3115802 67.49105031 -222.32991388 72.85092776 -222.35324097 78.21078491 C-222.39200333 86.34954504 -222.46865527 94.48716 -222.53808594 102.62597656 C-206.69808594 102.62597656 -190.85808594 102.62597656 -174.53808594 102.62597656 C-174.53808594 99.98597656 -174.53808594 97.34597656 -174.53808594 94.62597656 C-175.4154541 94.65739746 -175.4154541 94.65739746 -176.31054688 94.68945312 C-178.96955059 94.77277772 -181.62827949 94.82468553 -184.28808594 94.87597656 C-185.20847656 94.90949219 -186.12886719 94.94300781 -187.07714844 94.97753906 C-188.41132813 94.996875 -188.41132813 94.996875 -189.77246094 95.01660156 C-190.5894043 95.03754883 -191.40634766 95.05849609 -192.24804688 95.08007812 C-195.58742717 94.41789824 -196.61349562 93.44083882 -198.53808594 90.62597656 C-199.12271686 87.62413097 -199.09868036 84.67662846 -199.06933594 81.62597656 C-199.07316284 80.75328125 -199.07698975 79.88058594 -199.08093262 78.98144531 C-199.08365084 77.13898564 -199.07629588 75.29648732 -199.05957031 73.45410156 C-199.03815841 70.63551722 -199.05937395 67.81948172 -199.08496094 65.00097656 C-199.08231764 63.20930428 -199.07719263 61.41763357 -199.06933594 59.62597656 C-199.07743286 58.78421875 -199.08552979 57.94246094 -199.09387207 57.07519531 C-199.03367907 53.31515219 -198.96338102 51.24800353 -196.80273438 48.08789062 C-194.18837166 46.4002231 -192.8588506 46.15621337 -189.77246094 46.23535156 C-188.43828125 46.2546875 -188.43828125 46.2546875 -187.07714844 46.27441406 C-185.6965625 46.3246875 -185.6965625 46.3246875 -184.28808594 46.37597656 C-182.88429688 46.40304688 -182.88429688 46.40304688 -181.45214844 46.43066406 C-179.14641578 46.47771983 -176.84277649 46.54343944 -174.53808594 46.62597656 C-174.58449219 45.80613281 -174.63089844 44.98628906 -174.67871094 44.14160156 C-174.71480469 43.06394531 -174.75089844 41.98628906 -174.78808594 40.87597656 C-174.83449219 39.80863281 -174.88089844 38.74128906 -174.92871094 37.64160156 C-174.44062385 33.87356925 -173.46798943 32.96512415 -170.53808594 30.62597656 C-168.16038513 30.21466064 -168.16038513 30.21466064 -165.47729492 30.33398438 C-164.45898087 30.36519379 -163.44066681 30.3964032 -162.39149475 30.42855835 C-160.72962379 30.50307724 -160.72962379 30.50307724 -159.03417969 30.57910156 C-156.6233393 30.63672955 -154.21235063 30.68838456 -151.80126953 30.73486328 C-150.52693054 30.76126892 -149.25259155 30.78767456 -147.93963623 30.81488037 C-118.78389146 31.26424525 -94.33135431 25.95341187 -66.87402344 15.890625 C-56.92178912 12.28014274 -46.79566495 9.21037223 -36.67095947 6.12506104 C-33.49313114 5.15052384 -30.32362067 4.15226376 -27.15478516 3.14892578 C-25.21767813 2.54678493 -23.28035247 1.94534684 -21.34277344 1.34472656 C-20.04786987 0.92871689 -20.04786987 0.92871689 -18.72680664 0.50430298 C-12.5450118 -1.37966462 -5.97022769 -3.23205478 0 0 Z M-119.53808594 110.62597656 C-119.62134125 111.22874924 -119.70459656 111.83152191 -119.79037476 112.45256042 C-120.6589118 118.73158279 -121.5363503 125.00931551 -122.41894531 131.28637695 C-122.74707363 133.6285063 -123.07293843 135.97095394 -123.39648438 138.3137207 C-123.86219696 141.6829941 -124.33606376 145.05103533 -124.81152344 148.41894531 C-125.02571426 149.98795845 -125.02571426 149.98795845 -125.24423218 151.58866882 C-125.45422348 153.05962761 -125.45422348 153.05962761 -125.66845703 154.56030273 C-125.78837006 155.41967941 -125.90828308 156.27905609 -126.03182983 157.16447449 C-126.58322609 159.84545556 -127.36033803 162.15541845 -128.53808594 164.62597656 C-133.037006 166.8754366 -139.19011031 165.85319583 -144.19604492 165.86621094 C-146.46342543 165.87592447 -148.72990232 165.90695049 -150.99707031 165.93847656 C-152.43651805 165.94500599 -153.87597227 165.9502567 -155.31542969 165.95410156 C-156.62761475 165.96344727 -157.9397998 165.97279297 -159.29174805 165.98242188 C-162.53808594 165.62597656 -162.53808594 165.62597656 -164.21395874 164.37742615 C-165.87063855 162.18610256 -165.93135674 160.97567446 -165.97045898 158.24633789 C-165.99039917 157.35338013 -166.01033936 156.46042236 -166.03088379 155.54040527 C-166.04024963 154.13836853 -166.04024963 154.13836853 -166.04980469 152.70800781 C-166.06644165 151.84606812 -166.08307861 150.98412842 -166.10021973 150.09606934 C-166.15804178 146.87711981 -166.19027709 143.65775175 -166.22558594 140.43847656 C-166.32871094 133.24035156 -166.43183594 126.04222656 -166.53808594 118.62597656 C-185.01808594 118.62597656 -203.49808594 118.62597656 -222.53808594 118.62597656 C-222.74811382 132.97111038 -222.74811382 132.97111038 -222.92602539 147.31665039 C-222.95830746 149.11379084 -222.99168006 150.91091218 -223.02636719 152.70800781 C-223.03261108 153.64269897 -223.03885498 154.57739014 -223.04528809 155.54040527 C-223.06522827 156.43336304 -223.08516846 157.3263208 -223.10571289 158.24633789 C-223.12236748 159.40882805 -223.12236748 159.40882805 -223.13935852 160.59480286 C-223.66673376 163.2813267 -224.33111757 163.9991424 -226.53808594 165.62597656 C-229.52256775 166.00349998 -229.52256775 166.00349998 -233.2565918 166.00692749 C-233.94307517 166.01160746 -234.62955854 166.01628743 -235.33684444 166.02110922 C-237.64240139 166.0330972 -239.94736809 166.02358758 -242.25292969 166.01416016 C-243.90365954 166.01822419 -245.55438668 166.02356511 -247.20510864 166.03009033 C-251.6926602 166.04378987 -256.18000531 166.03845445 -260.66756058 166.02895308 C-265.35870174 166.02137011 -270.04982496 166.02839829 -274.7409668 166.03311157 C-282.61966127 166.03857311 -290.49827144 166.03136709 -298.37695312 166.01708984 C-307.49231821 166.00076256 -316.60748201 166.00605079 -325.72284222 166.02256906 C-333.5420107 166.0361726 -341.3611185 166.03810914 -349.18029499 166.03025305 C-353.85345574 166.0255703 -358.52652181 166.02496818 -363.19967651 166.03486252 C-367.59261394 166.04351347 -371.98529127 166.03754469 -376.37820053 166.02017975 C-377.99272097 166.01620487 -379.60726322 166.01736601 -381.22177505 166.02396774 C-383.42134131 166.03213414 -385.62006772 166.02192225 -387.81958008 166.00692749 C-389.66792198 166.00523088 -389.66792198 166.00523088 -391.55360413 166.00349998 C-394.53808594 165.62597656 -394.53808594 165.62597656 -396.43307209 164.22911549 C-397.8755355 162.13640938 -397.93416895 160.77938209 -397.97045898 158.24633789 C-397.99025314 157.3656514 -398.0100473 156.4849649 -398.03044128 155.57759094 C-398.03683121 154.63062851 -398.04322113 153.68366608 -398.04980469 152.70800781 C-398.07673149 151.24943611 -398.07673149 151.24943611 -398.10420227 149.76139832 C-398.15841061 146.65380193 -398.19223491 143.54636004 -398.22558594 140.43847656 C-398.2587497 138.33233522 -398.29323847 136.22621429 -398.32910156 134.12011719 C-398.41414325 128.95551495 -398.48090434 123.79095938 -398.53808594 118.62597656 C-401.08040936 118.54445313 -403.62007796 118.48523941 -406.16308594 118.43847656 C-406.8759375 118.41333984 -407.58878906 118.38820313 -408.32324219 118.36230469 C-413.10759885 118.29646492 -416.47807592 118.81566933 -420.53808594 121.62597656 C-423.13937929 126.2150821 -422.81218516 130.9151386 -422.77859497 136.03486633 C-422.78030701 136.98423065 -422.78201904 137.93359497 -422.78378296 138.91172791 C-422.78709484 142.104721 -422.77604379 145.29750457 -422.76513672 148.49047852 C-422.76452411 150.81394284 -422.76479092 153.13740754 -422.76586723 155.4608717 C-422.76631915 161.68864486 -422.75471897 167.91634132 -422.74064636 174.14409637 C-422.729265 179.98583725 -422.72872058 185.82755937 -422.72729492 191.66931152 C-422.71679606 208.75904338 -422.68887381 225.84876094 -422.66308594 242.93847656 C-422.62183594 281.11535156 -422.58058594 319.29222656 -422.53808594 358.62597656 C-274.69808594 358.62597656 -126.85808594 358.62597656 25.46191406 358.62597656 C25.52378906 320.46972656 25.58566406 282.31347656 25.64941406 243.00097656 C25.67672607 230.94356934 25.70403809 218.88616211 25.73217773 206.46337891 C25.74220971 195.67524848 25.74220971 195.67524848 25.74824524 184.88711548 C25.75104537 180.0740038 25.76230839 175.26099093 25.77864075 170.44790649 C25.79918632 164.31211817 25.80539339 158.17647396 25.80113089 152.04065442 C25.80202248 149.78656943 25.80799005 147.5324795 25.81955945 145.27842402 C25.83444668 142.23713969 25.83089698 139.19641768 25.82267761 136.15512085 C25.83141561 135.27015238 25.8401536 134.38518391 25.84915638 133.47339821 C25.81259974 128.45228328 25.27413676 124.96714596 22.46191406 120.62597656 C18.34683281 118.03088028 13.864649 118.39141793 9.14941406 118.50097656 C8.40884766 118.51 7.66828125 118.51902344 6.90527344 118.52832031 C5.09067939 118.55173443 3.27625335 118.58760041 1.46191406 118.62597656 C1.44733154 119.21612549 1.43274902 119.80627441 1.41772461 120.41430664 C1.34322563 123.08968886 1.24657411 125.76382548 1.14941406 128.43847656 C1.12685547 129.36724609 1.10429687 130.29601562 1.08105469 131.25292969 C1.04560547 132.14560547 1.01015625 133.03828125 0.97363281 133.95800781 C0.94744873 134.78018799 0.92126465 135.60236816 0.89428711 136.44946289 C0.35771739 139.15049003 -0.40528835 139.92172004 -2.53808594 141.62597656 C-8.50653928 142.76268779 -14.34828384 141.14938662 -20.00097656 139.31860352 C-20.79428375 139.07304214 -21.58759094 138.82748077 -22.40493774 138.57447815 C-25.00530756 137.766349 -27.5996452 136.94042051 -30.19433594 136.11425781 C-32.02368719 135.54215501 -33.85340634 134.97122739 -35.68347168 134.40141296 C-40.49399176 132.90036049 -45.29966105 131.38434162 -50.10437012 129.86480713 C-55.89325113 128.03694862 -61.6875869 126.22647829 -67.48116302 124.41356945 C-72.00076303 122.99896372 -76.51954336 121.58192391 -81.0357666 120.15657043 C-85.08593067 118.87904021 -89.13914301 117.61175578 -93.19546509 116.35391617 C-94.77372401 115.8634923 -96.35108285 115.3701635 -97.92758179 114.87411118 C-100.22644857 114.15279033 -102.52902973 113.44478909 -104.83300781 112.73999023 C-105.50938545 112.52522443 -106.18576309 112.31045862 -106.88263702 112.08918476 C-111.20883968 110.78538311 -115.03193417 110.42872878 -119.53808594 110.62597656 Z " fill="#000000" transform="translate(454.5380859375,17.3740234375)"/>
<path d="M0 0 C1.32396412 -0.00935994 1.32396412 -0.00935994 2.67467499 -0.01890898 C5.63820449 -0.03488939 8.60091723 -0.02221496 11.56445312 -0.00964355 C13.68660971 -0.01506242 15.80876253 -0.02218375 17.9309082 -0.03088379 C23.69944448 -0.04914793 29.46769519 -0.04203675 35.23623657 -0.02936745 C41.26687401 -0.01925584 47.29748663 -0.02862801 53.328125 -0.03491211 C63.45642497 -0.04219387 73.58460835 -0.03258689 83.71289062 -0.0135498 C95.43046156 0.00821986 107.14775411 0.00116887 118.8653183 -0.02085543 C128.9172072 -0.03899431 138.96901219 -0.04157513 149.02091217 -0.03110075 C155.02822942 -0.02485753 161.03541572 -0.024053 167.04272461 -0.0372467 C172.68986066 -0.04878253 178.33663703 -0.04082075 183.98373413 -0.01766968 C186.05902509 -0.01237048 188.1343462 -0.01391694 190.20962524 -0.02272034 C193.03729732 -0.0336115 195.86380863 -0.01999008 198.69140625 0 C199.51747124 -0.00892289 200.34353622 -0.01784577 201.19463348 -0.02703905 C204.68139403 0.0209486 206.9245969 0.22587014 209.85485077 2.18860626 C211.69573528 5.05248178 211.84848726 6.73034064 211.8536377 10.12512207 C211.86491699 11.26916504 211.87619629 12.41320801 211.88781738 13.59191895 C211.87972046 14.8429541 211.87162354 16.09398926 211.86328125 17.38293457 C211.86870281 18.71692672 211.87582567 20.05091287 211.88452148 21.3848877 C211.90275426 25.00478805 211.89568786 28.62423231 211.88300514 32.24414062 C211.87287708 36.03260527 211.88227027 39.82103089 211.8885498 43.60949707 C211.89582681 49.97154755 211.88623725 56.33341229 211.8671875 62.69543457 C211.84541849 70.05053594 211.85246984 77.4051938 211.87449312 84.76028442 C211.89264574 91.07548824 211.89520617 97.39055855 211.88473845 103.70578003 C211.87850269 107.4774706 211.87766994 111.24895271 211.8908844 115.02062988 C211.90244047 118.5666581 211.89442256 122.1121146 211.87130737 125.65808105 C211.86349626 127.58002944 211.87537835 129.50202619 211.88781738 131.4239502 C211.87653809 132.56799316 211.86525879 133.71203613 211.8536377 134.89074707 C211.85212959 135.88477539 211.85062149 136.87880371 211.84906769 137.9029541 C211.34570312 140.50793457 211.34570312 140.50793457 209.85485077 142.82726288 C206.25523796 145.23834752 202.87798731 145.06109124 198.69140625 145.01586914 C197.8087635 145.0221091 196.92612076 145.02834907 196.01673126 145.03477812 C193.05320176 145.05075853 190.09048902 145.0380841 187.12695312 145.0255127 C185.00479654 145.03093156 182.88264372 145.03805289 180.76049805 145.04675293 C174.99196177 145.06501707 169.22371106 145.05790589 163.45516968 145.04523659 C157.42453224 145.03512498 151.39391962 145.04449715 145.36328125 145.05078125 C135.23498128 145.05806301 125.1067979 145.04845603 114.97851562 145.02941895 C103.26094469 145.00764928 91.54365214 145.01470027 79.82608795 145.03672457 C69.77419905 145.05486346 59.72239406 145.05744427 49.67049408 145.04696989 C43.66317683 145.04072667 37.65599053 145.03992214 31.64868164 145.05311584 C26.00154559 145.06465167 20.35476922 145.05668989 14.70767212 145.03353882 C12.63238116 145.02823962 10.55706005 145.02978609 8.48178101 145.03858948 C5.65410893 145.04948065 2.82759762 145.03585923 0 145.01586914 C-0.82606499 145.02479203 -1.65212997 145.03371491 -2.50322723 145.04290819 C-5.98998778 144.99492054 -8.23319065 144.78999901 -11.16344452 142.82726288 C-13.00432903 139.96338736 -13.15708101 138.2855285 -13.16223145 134.89074707 C-13.17351074 133.7467041 -13.18479004 132.60266113 -13.19641113 131.4239502 C-13.18831421 130.17291504 -13.18021729 128.92187988 -13.171875 127.63293457 C-13.17729656 126.29894242 -13.18441942 124.96495627 -13.19311523 123.63098145 C-13.21134801 120.01108109 -13.20428161 116.39163683 -13.19159889 112.77172852 C-13.18147083 108.98326387 -13.19086402 105.19483825 -13.19714355 101.40637207 C-13.20442056 95.04432159 -13.194831 88.68245685 -13.17578125 82.32043457 C-13.15401224 74.9653332 -13.16106359 67.61067534 -13.18308687 60.25558472 C-13.20123949 53.9403809 -13.20379992 47.62531059 -13.1933322 41.31008911 C-13.18709644 37.53839854 -13.18626369 33.76691643 -13.19947815 29.99523926 C-13.21103422 26.44921104 -13.20301631 22.90375454 -13.17990112 19.35778809 C-13.17209001 17.4358397 -13.1839721 15.51384295 -13.19641113 13.59191895 C-13.18513184 12.44787598 -13.17385254 11.30383301 -13.16223145 10.12512207 C-13.16072334 9.13109375 -13.15921524 8.13706543 -13.15766144 7.11291504 C-12.65429688 4.50793457 -12.65429688 4.50793457 -11.16344452 2.18860626 C-7.56383171 -0.22247838 -4.18658106 -0.04522209 0 0 Z " fill="#000000" transform="translate(60.654296875,215.4920654296875)"/>
<path d="M0 0 C1.27866943 -0.0112793 2.55733887 -0.02255859 3.87475586 -0.03417969 C5.28955305 -0.02640266 6.704348 -0.01821 8.11914062 -0.00964355 C9.61076542 -0.01506435 11.10238485 -0.02218677 12.59399414 -0.03088379 C16.6436169 -0.04912547 20.69283223 -0.04204633 24.74246216 -0.02936745 C28.97936099 -0.01924407 33.21622481 -0.02863128 37.453125 -0.03491211 C44.56842312 -0.04219046 51.68355521 -0.03259594 58.79882812 -0.0135498 C67.02641862 0.00821938 75.25361265 0.00116814 83.48119354 -0.02085543 C90.54373317 -0.03900413 97.6061534 -0.04157037 104.6687088 -0.03110075 C108.88752237 -0.02486287 113.10614956 -0.02403817 117.32495117 -0.0372467 C121.29119435 -0.04879699 125.25692611 -0.04079505 129.22311401 -0.01766968 C130.6791804 -0.01237811 132.1352898 -0.01390409 133.59133911 -0.02272034 C135.57780425 -0.03363977 137.56436338 -0.01752243 139.55078125 0 C141.21880798 0.00226215 141.21880798 0.00226215 142.92053223 0.00457001 C146.4462146 0.6262133 147.6318159 1.68711545 149.77539062 4.50793457 C150.22949219 7.53234863 150.22949219 7.53234863 150.16601562 11.02355957 C150.153125 12.2739502 150.14023437 13.52434082 150.12695312 14.81262207 C150.07667969 16.76555176 150.07667969 16.76555176 150.02539062 18.75793457 C150.00734375 20.07535645 149.98929688 21.39277832 149.97070312 22.75012207 C149.92355333 26.00345765 149.85775106 29.25533082 149.77539062 32.50793457 C150.59523438 32.46152832 151.41507813 32.41512207 152.25976562 32.36730957 C153.33742188 32.33121582 154.41507813 32.29512207 155.52539062 32.25793457 C156.59273437 32.21152832 157.66007813 32.16512207 158.75976562 32.11730957 C161.77539062 32.50793457 161.77539062 32.50793457 163.93151855 33.91125488 C166.76349233 37.8994539 166.33362512 41.6661872 166.29296875 46.44543457 C166.29997803 47.45396484 166.3069873 48.46249512 166.31420898 49.50158691 C166.33182281 52.83731571 166.32015372 56.17219705 166.30664062 59.50793457 C166.30933455 61.82434248 166.31321614 64.14074929 166.3182373 66.45715332 C166.32413697 71.31273155 166.31555401 76.16801553 166.296875 81.02355957 C166.27408559 87.25158103 166.2872061 93.47891302 166.31116486 99.70690918 C166.32560995 104.49040942 166.32102268 109.27374584 166.31065369 114.05725098 C166.30798285 116.35380128 166.31126863 118.6503664 166.3205719 120.94689941 C166.33071589 124.15514597 166.31526546 127.36227163 166.29296875 130.57043457 C166.30106567 131.52224609 166.3091626 132.47405762 166.31750488 133.45471191 C166.30622559 134.32950195 166.29494629 135.20429199 166.2833252 136.10559082 C166.28181709 136.86364014 166.28030899 137.62168945 166.27875519 138.40270996 C165.54700783 141.46310129 164.27126491 142.63296894 161.77539062 144.50793457 C159.04547119 145.01129913 159.04547119 145.01129913 155.85449219 145.01586914 C154.64313599 145.02714844 153.43177979 145.03842773 152.18371582 145.05004883 C150.84448003 145.04227191 149.5052466 145.03407925 148.16601562 145.0255127 C146.75320718 145.03093385 145.34040439 145.03805648 143.9276123 145.04675293 C140.0928512 145.0649904 136.25852048 145.05791728 132.42375183 145.04523659 C128.41107013 145.035111 124.39842533 145.04450103 120.38574219 145.05078125 C113.6470681 145.05805896 106.90856935 145.04846679 100.16992188 145.02941895 C92.37857639 145.00764984 84.58764958 145.01470114 76.79631424 145.03672457 C70.10744263 145.05487512 63.41869708 145.05743862 56.72980881 145.04696989 C52.73455696 145.04073302 48.73950191 145.03990451 44.7442627 145.05311584 C40.98812762 145.06466886 37.23253243 145.05665938 33.47645569 145.03353882 C32.09779253 145.02824868 30.71908395 145.02977081 29.34043884 145.03858948 C27.45907206 145.04951455 25.57760601 145.03338664 23.69628906 145.01586914 C22.11675446 145.01360699 22.11675446 145.01360699 20.50531006 145.01129913 C17.06962031 144.37779895 15.88189477 143.248241 13.77539062 140.50793457 C13.32128906 137.48352051 13.32128906 137.48352051 13.38476562 133.99230957 C13.40410156 132.11672363 13.40410156 132.11672363 13.42382812 130.20324707 C13.45734375 128.90129395 13.49085938 127.59934082 13.52539062 126.25793457 C13.5434375 124.9405127 13.56148438 123.62309082 13.58007812 122.26574707 C13.62722792 119.01241149 13.69303019 115.76053832 13.77539062 112.50793457 C12.89802246 112.53935547 12.89802246 112.53935547 12.00292969 112.57141113 C9.34392597 112.65473572 6.68519707 112.70664354 4.02539062 112.75793457 C3.105 112.7914502 2.18460937 112.82496582 1.23632812 112.85949707 C-0.09785156 112.87883301 -0.09785156 112.87883301 -1.45898438 112.89855957 C-2.27592773 112.91950684 -3.09287109 112.9404541 -3.93457031 112.96203613 C-7.28316626 112.29802883 -8.20367287 111.28140925 -10.22460938 108.50793457 C-10.833483 105.20118508 -10.77072246 101.9247826 -10.7421875 98.57043457 C-10.74919678 97.5619043 -10.75620605 96.55337402 -10.76342773 95.51428223 C-10.78104156 92.17855343 -10.76937247 88.84367209 -10.75585938 85.50793457 C-10.7585533 83.19152666 -10.76243489 80.87511985 -10.76745605 78.55871582 C-10.77335572 73.70313759 -10.76477276 68.84785361 -10.74609375 63.99230957 C-10.72330434 57.76428811 -10.73642485 51.53695612 -10.76038361 45.30895996 C-10.7748287 40.52545972 -10.77024143 35.7421233 -10.75987244 30.95861816 C-10.7572016 28.66206786 -10.76048738 26.36550274 -10.76979065 24.06896973 C-10.77993464 20.86072317 -10.76448421 17.65359751 -10.7421875 14.44543457 C-10.75028442 13.49362305 -10.75838135 12.54181152 -10.76672363 11.56115723 C-10.75544434 10.68636719 -10.74416504 9.81157715 -10.73254395 8.91027832 C-10.73103584 8.152229 -10.72952774 7.39417969 -10.72797394 6.61315918 C-9.35018335 0.85081738 -5.32616355 0.00722327 0 0 Z " fill="#000000" transform="translate(298.224609375,199.4920654296875)"/>
<path d="M0 0 C47.52 0 95.04 0 144 0 C144 36.96 144 73.92 144 112 C96.48 112 48.96 112 0 112 C0 75.04 0 38.08 0 0 Z " fill="#77B8EA" transform="translate(72,56)"/>
<path d="M0 0 C4.01544168 1.60617667 7.22245034 3.22559526 10.875 5.45703125 C11.71062973 5.96553619 11.71062973 5.96553619 12.56314087 6.48431396 C14.37774388 7.58996354 16.18891103 8.70110535 18 9.8125 C19.26986179 10.58806758 20.53988303 11.36337414 21.81005859 12.13842773 C30.77342763 17.61319215 39.71035957 23.1307074 48.6328125 28.671875 C54.91117873 32.56944678 61.20542984 36.44117934 67.5 40.3125 C68.55010254 40.95840088 69.60020508 41.60430176 70.68212891 42.26977539 C72.73641546 43.53319237 74.79287433 44.79308446 76.8515625 46.04931641 C79.07631669 47.42771172 81.27311843 48.8250862 83.4609375 50.25927734 C84.03678589 50.63030075 84.61263428 51.00132416 85.20593262 51.3835907 C86.81296096 52.42028781 88.41164167 53.46989192 90.00976562 54.52026367 C93.43084077 56.21320427 95.23382898 56.53341543 99 56 C102.00784145 54.6771172 102.00784145 54.6771172 104.97265625 52.73828125 C105.80616356 52.22553146 105.80616356 52.22553146 106.6565094 51.7024231 C108.46654023 50.58484315 110.26426731 49.44894715 112.0625 48.3125 C113.32719789 47.52684443 114.59266924 46.74243266 115.85888672 45.95922852 C118.3999191 44.38464209 120.9362277 42.80288264 123.46826172 41.21386719 C127.34916907 38.77838453 131.24748825 36.37160577 135.14746094 33.96679688 C137.64931623 32.42249045 140.14728339 30.87205664 142.64453125 29.3203125 C149.96312592 24.77678291 157.30580448 20.27231417 164.64697266 15.76538086 C169.49208888 12.78772147 174.33088225 9.80245747 179.13671875 6.76171875 C179.88590576 6.28822998 180.63509277 5.81474121 181.40698242 5.3269043 C182.75998594 4.46914457 184.11058918 3.6075817 185.45825195 2.74145508 C189.78115433 0 189.78115433 0 192 0 C192 34.65 192 69.3 192 105 C128.64 105 65.28 105 0 105 C0 70.35 0 35.7 0 0 Z " fill="#886EF6" transform="translate(64,239)"/>
<path d="M0 0 C39.6 0 79.2 0 120 0 C120 26.4 120 52.8 120 80 C80.4 80 40.8 80 0 80 C0 53.6 0 27.2 0 0 Z " fill="#E97684" transform="translate(328,248)"/>
<path d="M0 0 C147.84 0 295.68 0 448 0 C448 11.55555556 448 11.55555556 445 15 C441.52703818 16.15765394 438.42869335 16.1406614 434.81723881 16.13142776 C433.70711514 16.13450672 433.70711514 16.13450672 432.57456473 16.13764787 C430.07500769 16.14333791 427.5755054 16.14185816 425.07594299 16.14044189 C423.27366619 16.14302437 421.47138996 16.1460372 419.66911453 16.1494453 C414.70112441 16.15753214 409.73314873 16.1593058 404.76515281 16.16004276 C399.41333684 16.16189035 394.06152842 16.16943611 388.7097168 16.17617798 C377.00132261 16.18977297 365.29293184 16.19578761 353.58453107 16.20018864 C346.27888176 16.20294864 338.97323378 16.2071855 331.66758537 16.21169281 C311.45428456 16.22388614 291.24098481 16.23418589 271.0276804 16.2375679 C269.08632864 16.23789725 269.08632864 16.23789725 267.10575765 16.23823325 C265.15967845 16.23856067 265.15967845 16.23856067 263.17428452 16.2388947 C260.54514476 16.23933817 257.91600499 16.23978474 255.28686523 16.24023438 C253.98271233 16.2404558 252.67855942 16.24067723 251.33488672 16.24090537 C230.18898903 16.24485588 209.04312575 16.26231732 187.89724136 16.2855939 C166.20540765 16.30927947 144.51359124 16.32176845 122.82174438 16.32293582 C110.63509144 16.32385406 98.44848335 16.329644 86.26184273 16.34775543 C75.88763437 16.36311863 65.51348472 16.36829926 55.13926715 16.36001733 C49.84263458 16.3560976 44.54612036 16.35710462 39.24950218 16.37107468 C34.40555262 16.38373445 29.56181131 16.38268641 24.71786236 16.37048396 C22.96082457 16.36851315 21.20377243 16.37166858 19.44675488 16.38032833 C17.06711396 16.39131889 14.68822139 16.38400642 12.30860233 16.3719368 C11.61886897 16.37953199 10.92913561 16.38712718 10.21850124 16.39495254 C7.23390837 16.36204092 5.23318767 16.13009277 2.60571235 14.66425395 C-1.49316164 10.41594184 0 6.11972067 0 0 Z " fill="#E7E4FA" transform="translate(32,392)"/>
<path d="M0 0 C0 34.98 0 69.96 0 106 C-6.09015202 104.64663288 -11.95131073 103.20212771 -17.8828125 101.35546875 C-18.70014862 101.10380447 -19.51748474 100.8521402 -20.35958862 100.59284973 C-22.07943442 100.06251222 -23.7987589 99.53048139 -25.51757812 98.99682617 C-28.09644129 98.19636443 -30.67695787 97.40143624 -33.2578125 96.60742188 C-40.88064377 94.25530535 -48.48484466 91.86554829 -56.04296875 89.3125 C-62.94174311 86.98943381 -69.89784117 84.9885482 -76.91601562 83.06445312 C-77.78291016 82.82275391 -78.64980469 82.58105469 -79.54296875 82.33203125 C-80.30633545 82.12296143 -81.06970215 81.9138916 -81.85620117 81.69848633 C-84 81 -84 81 -88 79 C-88 61.84 -88 44.68 -88 27 C-80.12972519 23.62702508 -80.12972519 23.62702508 -76.50390625 22.5703125 C-75.70670166 22.33505859 -74.90949707 22.09980469 -74.08813477 21.85742188 C-73.25467529 21.61572266 -72.42121582 21.37402344 -71.5625 21.125 C-69.77059305 20.59716921 -67.97892882 20.06851378 -66.1875 19.5390625 C-65.30578125 19.27899414 -64.4240625 19.01892578 -63.515625 18.75097656 C-60.0184265 17.70697592 -56.54045759 16.60605156 -53.0625 15.5 C-46.14010918 13.30621032 -39.16058449 11.34321852 -32.16870117 9.38427734 C-24.58199768 7.22892448 -17.11374582 4.76928976 -9.66333008 2.18408203 C-8.83341553 1.89903809 -8.00350098 1.61399414 -7.1484375 1.3203125 C-6.41802246 1.06523926 -5.68760742 0.81016602 -4.93505859 0.54736328 C-3 0 -3 0 0 0 Z " fill="#F4CA4E" transform="translate(440,35)"/>
<path d="M0 0 C49.5 0 99 0 150 0 C146.55198071 2.75841543 143.45642775 5.06005897 139.73828125 7.328125 C138.71460449 7.95509277 137.69092773 8.58206055 136.63623047 9.22802734 C134.99098389 10.22890381 134.99098389 10.22890381 133.3125 11.25 C132.15749179 11.95617827 131.00271054 12.66272789 129.84814453 13.36962891 C127.44376648 14.84131474 125.03841721 16.31139319 122.63232422 17.78027344 C117.97918713 20.62217135 113.33434664 23.477478 108.69091797 26.33520508 C106.49469037 27.68621977 104.29711492 29.035046 102.09814453 30.3815918 C97.35828614 33.28860306 92.63846275 36.21289924 87.98828125 39.26171875 C87.24980957 39.74141113 86.51133789 40.22110352 85.75048828 40.71533203 C84.42662815 41.57983619 83.11037884 42.45617533 81.80419922 43.34716797 C77.62738069 46.06451674 77.62738069 46.06451674 74.59741211 45.75292969 C71.874039 44.96348682 69.79819993 43.93366497 67.3671875 42.48046875 C66.48877197 41.95912354 65.61035645 41.43777832 64.70532227 40.90063477 C63.77131592 40.33530029 62.83730957 39.76996582 61.875 39.1875 C60.896521 38.60218506 59.91804199 38.01687012 58.90991211 37.41381836 C51.97092787 33.2434613 45.10720255 28.96064169 38.28149414 24.60791016 C30.89042081 19.90062491 23.40900705 15.34688903 15.91430664 10.80688477 C13.27437886 9.20757021 10.63662785 7.60474782 8 6 C6.78642822 5.26499268 6.78642822 5.26499268 5.54833984 4.51513672 C3.68153473 3.37128314 1.83778609 2.18991791 0 1 C0 0.67 0 0.34 0 0 Z " fill="#B7AFEF" transform="translate(85,232)"/>
<path d="M0 0 C4.72413732 1.47798414 9.06814268 3.68980167 13.47207642 5.92544556 C15.04253975 6.70815071 15.04253975 6.70815071 16.64472961 7.50666809 C18.84701978 8.60796215 21.04634361 9.71520585 23.24282837 10.82803345 C26.60737603 12.53019635 29.98307894 14.20848338 33.36074829 15.88442993 C35.50272905 16.95919847 37.64402956 18.03532403 39.78457642 19.11294556 C40.79393753 19.61413406 41.80329865 20.11532257 42.84324646 20.63169861 C43.77819443 21.10866684 44.7131424 21.58563507 45.67642212 22.07705688 C46.49834549 22.49151566 47.32026886 22.90597443 48.167099 23.33299255 C50.56600548 24.89390896 51.84813263 26.25423067 53.29629517 28.71841431 C53.53792653 33.79267294 53.53792653 33.79267294 52.29629517 36.71841431 C50.77090454 38.03146362 50.77090454 38.03146362 48.82754517 39.15689087 C48.10397827 39.57869629 47.38041138 40.00050171 46.63491821 40.43508911 C42.66026415 42.61619038 38.65585321 44.72158046 34.60879517 46.76528931 C33.70685425 47.22195984 32.80491333 47.67863037 31.87564087 48.1491394 C29.98084329 49.10592447 28.08490991 50.06046326 26.18789673 51.0128479 C23.29884248 52.46713204 20.41877299 53.93827189 17.53848267 55.40982056 C15.6874502 56.34186353 13.83590453 57.27288813 11.98379517 58.20278931 C11.13148315 58.64129211 10.27917114 59.07979492 9.40103149 59.53158569 C4.27204076 62.07718158 0.04490966 63.49207844 -5.70370483 63.71841431 C-8.9708231 62.04296904 -9.53151584 61.2349813 -10.70370483 57.71841431 C-10.81596796 56.01207274 -10.87266895 54.30181291 -10.89657593 52.59194946 C-10.92067032 51.02484726 -10.92067032 51.02484726 -10.94525146 49.42608643 C-10.98972826 44.65830167 -11.03074788 39.89065475 -11.05380249 35.12271118 C-11.07038108 32.6066667 -11.09769565 30.09066967 -11.13583374 27.57485962 C-11.190527 23.9479834 -11.21246405 20.32220955 -11.22714233 16.69497681 C-11.24981171 15.57088409 -11.27248108 14.44679138 -11.2958374 13.28863525 C-11.28277541 8.47162255 -11.22748619 5.57158783 -8.67098999 1.40737915 C-5.46784584 -0.41583553 -3.61322322 -0.72538853 0 0 Z " fill="#010202" transform="translate(130.70370483398438,80.28158569335938)"/>
<path d="M0 0 C42.24 0 84.48 0 128 0 C128 5.28 128 10.56 128 16 C126.56815369 16.00364563 125.13630737 16.00729126 123.66107178 16.01104736 C110.18219833 16.0479522 96.70352869 16.10543763 83.22483444 16.18390274 C76.2949052 16.22371543 69.36508988 16.25609647 62.43505859 16.27099609 C55.7500037 16.28538987 49.06535275 16.32047514 42.38043976 16.36830902 C39.82714146 16.3831723 37.27379278 16.39104383 34.72045135 16.39188385 C31.15016322 16.39424029 27.58086114 16.42121503 24.01074219 16.45410156 C22.41931145 16.44655602 22.41931145 16.44655602 20.79573059 16.43885803 C15.27638419 16.4687076 15.27638419 16.4687076 10.34594727 18.66723633 C8.66052222 21.58837478 8.48290897 23.4996509 8.45410156 26.87011719 C8.42452362 28.64150055 8.42452362 28.64150055 8.39434814 30.44866943 C8.39250519 32.35353119 8.39250519 32.35353119 8.390625 34.296875 C8.37408875 35.60078186 8.35755249 36.90468872 8.34051514 38.24810791 C8.29687061 41.70701979 8.27684946 45.16567822 8.26177979 48.62481689 C8.24219784 52.15758229 8.20022922 55.69007438 8.16015625 59.22265625 C8.08488623 66.1483344 8.03457555 73.07400242 8 80 C5.36 80 2.72 80 0 80 C0 53.6 0 27.2 0 0 Z " fill="#2CBFF6" transform="translate(304,216)"/>
<path d="M0 0 C47.52 0 95.04 0 144 0 C144 5.28 144 10.56 144 16 C96.48 16 48.96 16 0 16 C0 10.72 0 5.44 0 0 Z " fill="#E8E5FB" transform="translate(184,464)"/>
<path d="M0 0 C13.2 0 26.4 0 40 0 C40 15.84 40 31.68 40 48 C26.8 48 13.6 48 0 48 C0 32.16 0 16.32 0 0 Z " fill="#E8E5FB" transform="translate(296,64)"/>
<path d="M0 0 C18.48 0 36.96 0 56 0 C56 5.28 56 10.56 56 16 C37.52 16 19.04 16 0 16 C0 10.72 0 5.44 0 0 Z " fill="#000000" transform="translate(376,264)"/>
<path d="M0 0 C10.56 0 21.12 0 32 0 C32 7.92 32 15.84 32 24 C21.44 24 10.88 24 0 24 C0 16.08 0 8.16 0 0 Z " fill="#8E95A3" transform="translate(240,424)"/>
<path d="M0 0 C13.2 0 26.4 0 40 0 C40 5.28 40 10.56 40 16 C26.8 16 13.6 16 0 16 C0 10.72 0 5.44 0 0 Z " fill="#000000" transform="translate(392,296)"/>
<path d="M0 0 C10.56 0 21.12 0 32 0 C32 5.28 32 10.56 32 16 C21.44 16 10.88 16 0 16 C0 10.72 0 5.44 0 0 Z " fill="#000000" transform="translate(344,296)"/>
<path d="M0 0 C4.95 0 9.9 0 15 0 C14.33954997 8.84395729 12.99302242 17.46001704 11.4375 26.1875 C11.20076043 27.53443296 10.96442974 28.88143785 10.72851562 30.22851562 C10.15634168 33.486404 9.58008867 36.74351327 9 40 C6.03 40 3.06 40 0 40 C0 26.8 0 13.6 0 0 Z " fill="#C4BBC2" transform="translate(304,128)"/>
<path d="M0 0 C5.28 0 10.56 0 16 0 C16 5.28 16 10.56 16 16 C10.72 16 5.44 16 0 16 C0 10.72 0 5.44 0 0 Z " fill="#000000" transform="translate(344,264)"/>
<path d="M0 0 C3.09375 1.464375 6.1875 2.92875 9.375 4.4375 C10.34872559 4.89825928 11.32245117 5.35901855 12.32568359 5.83374023 C13.09219238 6.19669189 13.85870117 6.55964355 14.6484375 6.93359375 C15.43395996 7.30540771 16.21948242 7.67722168 17.02880859 8.06030273 C18.358629 8.69424858 19.68233248 9.34116624 21 10 C21 10.66 21 11.32 21 12 C17.68910974 13.66987892 14.37602825 15.33536259 11.0625 17 C10.11697266 17.47695312 9.17144531 17.95390625 8.19726562 18.4453125 C7.29814453 18.89648438 6.39902344 19.34765625 5.47265625 19.8125 C4.64000244 20.23144531 3.80734863 20.65039062 2.94946289 21.08203125 C1 22 1 22 0 22 C0 14.74 0 7.48 0 0 Z " fill="#E47381" transform="translate(136,101)"/>
<path d="M0 0 C10.9030837 -0.43612335 10.9030837 -0.43612335 15 3 C16.40457737 5.80915474 16.24895157 7.88810534 16 11 C14.22015595 14.1359157 13.47691793 14.84102736 10 16 C8.27204648 16.06802967 6.54164635 16.08495645 4.8125 16.0625 C3.224375 16.041875 1.63625 16.02125 0 16 C0 10.72 0 5.44 0 0 Z " fill="#E47381" transform="translate(456,80)"/>
<path d="M0 0 C2.64 0 5.28 0 8 0 C8 5.28 8 10.56 8 16 C5.36 16 2.72 16 0 16 C0 10.72 0 5.44 0 0 Z " fill="#E97684" transform="translate(272,80)"/>
</svg>
